# xmcd
#
# Track frame offsets:
#	150
#	14531
#	29796
#	44848
#	59957
#	72294
#	86367
#	100215
#	114335
#	126496
#	139976
#	154674
#	167315
#	181167
#	195463
#	208133
#	221673
#	235921
#	248449
#	261787
#	275009
#	287567
#	300461
#	312857
#	326246
#
# Disc length: 4521 seconds
#
# Revision: 0
# Processed by: cddbd v1.5.2PL0 Copyright (c) Steve Scherf et al.
# Submitted via: audiograbber 1.83.01
#
DISCID=7b11a719
DTITLE=Sonny Boy Williamson - The Original Sonny Boy Williamson - The Early Yea
DTITLE=rs - 1938-1939
DYEAR=2007
DGENRE=Blues
TTITLE0=Sonny Boy Williamson - Goodbye Red
TTITLE1=Sonny Boy Williamson - The Right Kind Of Life
TTITLE2=Sonny Boy Williamson - Insurance Man Blues
TTITLE3=Sonny Boy Williamson - Rainy Day Blues
TTITLE4=Rambling Bob (McCoy) - Next Door Neighbor
TTITLE5=Rambling Bob (McCoy) - Bog Apple Blues
TTITLE6=Rambling Bob (McCoy) - Freight Train Blues
TTITLE7=Rambling Bob (McCoy) - Good Gamblin'
TTITLE8=Sonny Boy Williamson - Bad Luck Blues
TTITLE9=Sonny Boy Williamson - My Little Baby
TTITLE10=Sonny Boy Williamson - Doggin' My Love Around
TTITLE11=Sonny Boy Williamson - Little Low Woman Blues
TTITLE12=Sonny Boy Williamson - Good For Nothing Blues
TTITLE13=Sonny Boy Williamson - Sugar Mama Blues No. 2
TTITLE14=Sonny Boy Williamson - Good Gravy
TTITLE15=Sonny Boy Williamson - T. B. Blues
TTITLE16=Sonny Boy Williamson - Something Goin' On Wrong
TTITLE17=Sonny Boy Williamson - Good Gal Blues
TTITLE18=Sonny Boy Williamson - Joe Louis And John Henry Blues
TTITLE19=Sonny Boy Williamson - Thing My Blues Away
TTITLE20=Sonny Boy Williamson - I'm Not Pleasing You
TTITLE21=Sonny Boy Williamson - New Jail House Blues
TTITLE22=Sonny Boy Williamson - Life Time Blues
TTITLE23=Sonny Boy Williamson - Miss Ida Lee
TTITLE24=Sonny Boy Williamson - Tell Me, Baby
EXTD=
EXTT0=
EXTT1=
EXTT2=
EXTT3=
EXTT4=
EXTT5=
EXTT6=
EXTT7=
EXTT8=
EXTT9=
EXTT10=
EXTT11=
EXTT12=
EXTT13=
EXTT14=
EXTT15=
EXTT16=
EXTT17=
EXTT18=
EXTT19=
EXTT20=
EXTT21=
EXTT22=
EXTT23=
EXTT24=
PLAYORDER=
